<?xml version="1.0" encoding="utf-8" ?>
<svg xmlns="http://www.w3.org/2000/svg" xmlns:xlink="http://www.w3.org/1999/xlink" width="512" height="512">
	<path fill="white" d="M0 0L512 0L512 512L0 512L0 0Z"/>
	<path fill="#2B2C2C" d="M245.002 10.8557Q245.937 10.7818 246.874 10.7495C275.188 9.74224 302.663 17.6718 324.868 35.6292C330.179 39.9249 334.721 45.0199 339.708 49.6676C339.918 47.2655 339.702 41.3635 341.655 39.8022C345.085 37.0595 349.624 35.0718 353.449 32.8515Q365.429 25.9042 377.651 19.3911C381.58 17.2684 385.482 14.84 389.559 13.0328C390.618 12.5635 391.585 12.1478 392.772 12.3203C394.404 12.5575 395.963 13.8551 396.809 15.2258C397.362 16.1225 397.116 17.8417 396.982 18.8275C396.548 22.0165 395.415 25.2915 394.664 28.4306C393.199 34.5525 391.901 40.7263 390.214 46.7917C396.628 49.0826 402.828 51.8312 409.139 54.3698C412.335 55.6552 415.791 56.548 418.858 58.1132C420.065 58.7294 421.353 59.3744 422.025 60.6053C422.836 62.0911 423.068 63.9173 422.55 65.5377C422.251 66.4694 421.783 67.1362 420.99 67.7016C419.049 69.0859 416.693 70.0772 414.586 71.2026Q407.959 74.766 401.286 78.2439C391.588 83.3442 382.048 88.9204 372.179 93.6688C369.125 92.8752 366.311 91.3988 363.468 90.0612C366.778 102.127 368.753 113.119 368.924 125.68C369.251 149.735 360.119 174.729 345.814 193.916C342.48 198.388 338.753 202.426 334.875 206.427C315.839 225.817 288.261 238.16 261.242 240.177C231.292 242.414 200.442 231.405 177.792 211.893Q176.707 210.968 175.645 210.016Q174.583 209.065 173.546 208.087Q172.508 207.109 171.495 206.106Q170.482 205.102 169.495 204.074Q168.507 203.045 167.546 201.992Q166.584 200.94 165.649 199.863Q164.714 198.787 163.807 197.687Q162.899 196.588 162.019 195.466Q161.139 194.344 160.287 193.201Q159.435 192.057 158.612 190.893Q157.789 189.729 156.996 188.544Q156.202 187.36 155.438 186.156Q154.674 184.952 153.941 183.729Q153.207 182.507 152.505 181.266Q151.802 180.025 151.13 178.768Q150.459 177.51 149.819 176.236Q149.179 174.962 148.571 173.672Q147.963 172.382 147.387 171.078Q146.812 169.773 146.269 168.455Q145.726 167.137 145.217 165.805Q144.707 164.473 144.231 163.13Q143.754 161.786 143.312 160.43Q142.869 159.075 142.46 157.709Q142.052 156.343 141.677 154.967Q141.303 153.591 140.963 152.207Q140.623 150.822 140.318 149.429Q140.013 148.037 139.742 146.637Q139.472 145.237 139.236 143.831Q139.001 142.424 138.801 141.013Q138.601 139.601 138.436 138.185Q138.271 136.769 138.141 135.349Q138.012 133.929 137.918 132.506C135.794 103.236 146.42 72.9268 165.584 50.8597Q166.512 49.776 167.466 48.7156Q168.42 47.6551 169.4 46.6187Q170.38 45.5822 171.386 44.5703Q172.392 43.5585 173.422 42.5718Q174.452 41.5851 175.507 40.6243Q176.561 39.6634 177.639 38.7289Q178.717 37.7945 179.817 36.887Q180.918 35.9795 182.041 35.0996Q183.164 34.2196 184.308 33.3678Q185.452 32.5159 186.617 31.6926Q187.782 30.8693 188.967 30.0751Q190.152 29.281 191.357 28.5164Q192.561 27.7518 193.784 27.0172Q195.007 26.2827 196.248 25.5786Q197.488 24.8746 198.746 24.2015Q200.004 23.5284 201.278 22.8866Q202.552 22.2449 203.841 21.6349Q205.131 21.0249 206.435 20.447Q207.74 19.8691 209.058 19.3237Q210.376 18.7782 211.707 18.2656Q213.038 17.753 214.382 17.2735Q215.725 16.794 217.08 16.3479Q218.435 15.9018 219.801 15.4894Q221.167 15.077 222.542 14.6986Q223.918 14.3201 225.302 13.9758Q226.686 13.6315 228.079 13.3216Q229.471 13.0117 230.871 12.7364Q232.271 12.4611 233.677 12.2205Q235.083 11.9799 236.495 11.7742Q237.906 11.5685 239.323 11.3979Q240.739 11.2272 242.159 11.0916Q243.579 10.9561 245.002 10.8557Z"/>
	<path fill="#F4A31C" d="M382.969 29.2266C383.238 30.8324 381.693 34.7951 381.272 36.5419C380.606 39.3038 377.881 50.9971 378.945 53.1149C379.468 54.157 380.804 54.9086 381.793 55.4426C383.83 56.542 386.16 57.3055 388.3 58.197Q395.983 61.4461 403.774 64.4263C398.632 66.7652 393.778 69.6935 388.824 72.3947C383.579 75.2546 378.273 77.9403 373.115 80.965C372.875 81.1119 372.696 81.2352 372.425 81.3356C370.702 81.9731 352.426 72.9853 349.195 71.6732C349.261 63.5762 350.04 55.4093 350.35 47.3102Q366.58 38.1258 382.969 29.2266Z"/>
	<path fill="#EB7C65" d="M251.142 93.8508Q252.032 93.7845 252.924 93.7628C262.837 93.558 270.209 98.448 277.057 105.055C268.96 110.029 260.578 114.558 252.246 119.122C250 120.352 246.834 121.961 246.151 124.641C245.823 125.929 246.163 127.301 246.861 128.407C248.074 130.329 249.5 131.033 251.629 131.553C256.586 130.539 264.119 125.261 268.732 122.634C273.456 119.944 278.242 117.357 282.992 114.711C285.278 122.514 285.531 129.489 282.789 137.205Q281.987 139.117 280.936 140.904Q279.885 142.691 278.604 144.321C272.908 151.559 265.155 156.021 255.975 157.028C247.947 157.908 239.779 155.154 233.527 150.139Q232.907 149.645 232.312 149.121Q231.717 148.598 231.148 148.045Q230.58 147.493 230.039 146.913Q229.499 146.333 228.987 145.727Q228.476 145.121 227.995 144.491Q227.514 143.861 227.065 143.208Q226.616 142.554 226.2 141.88Q225.783 141.205 225.4 140.511Q225.018 139.816 224.67 139.104Q224.322 138.392 224.01 137.663Q223.697 136.935 223.421 136.191Q223.145 135.448 222.906 134.692Q222.667 133.937 222.466 133.17Q222.264 132.403 222.101 131.627Q221.937 130.852 221.812 130.069Q221.687 129.286 221.601 128.498C220.759 120.375 223.492 111.463 228.7 105.177C234.293 98.4263 242.504 94.6474 251.142 93.8508Z"/>
	<path fill="white" d="M250.145 55.8569C254.482 55.4581 259.243 55.9121 263.535 56.5738C267.73 57.2204 271.843 58.3893 275.856 59.7585C291.107 64.9619 301.488 73.8655 310.911 86.6559L286.928 100.157C283.221 95.0504 278.477 90.9982 272.966 87.9356C263.449 82.6456 251.487 81.5646 241.084 84.6195C230.397 87.7579 220.997 94.9255 215.659 104.782C210.359 114.568 209.125 126.916 212.334 137.562Q212.645 138.584 213.006 139.589Q213.367 140.594 213.776 141.58Q214.186 142.566 214.644 143.53Q215.102 144.495 215.607 145.436Q216.111 146.377 216.662 147.292Q217.212 148.207 217.807 149.094Q218.402 149.981 219.039 150.837Q219.677 151.694 220.356 152.518Q221.035 153.342 221.753 154.132Q222.472 154.922 223.229 155.675Q223.985 156.429 224.778 157.144Q225.571 157.859 226.398 158.535Q227.225 159.21 228.084 159.844Q228.943 160.478 229.833 161.069Q230.722 161.66 231.639 162.207Q232.557 162.753 233.5 163.254Q234.423 163.733 235.368 164.167Q236.314 164.601 237.279 164.988Q238.244 165.375 239.227 165.715Q240.21 166.055 241.208 166.347Q242.206 166.639 243.218 166.882Q244.229 167.126 245.251 167.319Q246.272 167.513 247.302 167.657Q248.332 167.801 249.368 167.895Q250.404 167.989 251.443 168.032Q252.482 168.076 253.522 168.069Q254.562 168.062 255.601 168.004Q256.639 167.947 257.673 167.839Q258.708 167.732 259.736 167.574Q260.764 167.416 261.783 167.208Q262.802 167.001 263.81 166.744Q264.818 166.487 265.812 166.182C276.511 162.814 286.003 155.187 291.15 145.158C295.251 137.165 296.851 127.583 295.266 118.71C294.706 115.58 293.693 112.585 292.713 109.569C296.002 108.124 299.215 105.936 302.34 104.138Q309.155 100.189 315.916 96.1484Q317.331 98.9001 318.465 101.779Q319.6 104.658 320.442 107.635Q321.284 110.612 321.827 113.659Q322.369 116.705 322.605 119.79Q322.739 121.486 322.788 123.186Q322.838 124.886 322.804 126.587Q322.77 128.287 322.653 129.984Q322.535 131.681 322.334 133.37Q322.132 135.059 321.848 136.736Q321.564 138.413 321.198 140.074Q320.831 141.735 320.383 143.376Q319.935 145.016 319.407 146.633Q318.879 148.25 318.272 149.839Q317.664 151.428 316.979 152.985Q316.295 154.542 315.534 156.063Q314.773 157.584 313.938 159.066Q313.104 160.548 312.197 161.987Q311.29 163.426 310.314 164.819Q309.337 166.212 308.293 167.554Q307.249 168.897 306.14 170.187C293.791 184.443 276.985 193.116 258.111 194.408C238.953 195.718 220.43 188.922 206.107 176.285C192.38 164.174 184.93 146.565 183.87 128.476Q183.785 126.801 183.782 125.123Q183.778 123.446 183.857 121.77Q183.935 120.095 184.094 118.425Q184.254 116.755 184.494 115.095Q184.734 113.435 185.055 111.789Q185.376 110.142 185.776 108.513Q186.176 106.884 186.655 105.277Q187.134 103.669 187.691 102.087Q188.247 100.505 188.88 98.9511Q189.513 97.3977 190.22 95.8767Q190.927 94.3558 191.708 92.8711Q192.488 91.3863 193.34 89.9413Q194.192 88.4962 195.113 87.0942Q196.033 85.6922 197.021 84.3365Q198.009 82.9809 199.062 81.6749Q200.114 80.3689 201.229 79.1155C213.96 64.8235 231.154 56.9839 250.145 55.8569Z"/>
	<path fill="#EB7C65" d="M246.142 21.8545C248.189 21.5809 250.444 21.6457 252.515 21.6353Q256.344 21.592 260.166 21.8386Q263.987 22.0853 267.779 22.6205Q271.571 23.1557 275.311 23.9764Q279.051 24.7971 282.719 25.8986C301.586 31.573 319.429 42.7621 332.132 57.8688C334.331 60.4843 336.833 63.3196 338.45 66.3309C338.228 68.0434 338.07 69.7553 337.926 71.4761C332.184 74.6921 325.741 77.6503 320.464 81.5655C318.91 79.0228 317.017 76.5951 315.131 74.2872Q313.922 72.7779 312.641 71.33Q311.36 69.8821 310.008 68.499Q308.657 67.116 307.24 65.8011Q305.822 64.4863 304.341 63.2429Q302.86 61.9994 301.32 60.8304Q299.78 59.6614 298.184 58.5697Q296.589 57.4779 294.941 56.4661Q293.293 55.4543 291.598 54.5248Q289.902 53.5953 288.163 52.7505Q286.424 51.9057 284.645 51.1475Q282.867 50.3893 281.053 49.7197Q279.239 49.05 277.394 48.4705Q275.549 47.891 273.679 47.403Q271.808 46.915 269.915 46.5198Q268.022 46.1245 266.112 45.823Q264.202 45.5214 262.28 45.3143C241.482 43.2456 219.332 48.7952 203.029 62.1631C199.372 65.1619 195.767 68.3845 192.65 71.9453C181.923 84.199 174.661 100.709 173.057 116.898C171.035 137.309 177.123 159.43 190.241 175.326C205.011 193.223 224.832 203.364 247.885 205.456C268.416 207.32 289.135 200.237 304.848 187.09C322.395 172.409 331.686 153.243 333.683 130.56C334.275 116.275 331.693 103.631 325.825 90.6044C331.588 87.569 337.509 84.4183 342.98 80.8874C344.911 81.87 346.955 82.6577 348.907 83.6155C353.591 93.747 356.649 105.272 357.522 116.389Q357.621 117.668 357.688 118.948Q357.756 120.229 357.792 121.51Q357.828 122.792 357.832 124.075Q357.837 125.357 357.809 126.639Q357.782 127.921 357.724 129.202Q357.665 130.483 357.575 131.762Q357.484 133.041 357.363 134.318Q357.241 135.595 357.088 136.868Q356.935 138.141 356.75 139.41Q356.566 140.679 356.351 141.943Q356.135 143.207 355.888 144.466Q355.642 145.724 355.364 146.976Q355.087 148.228 354.779 149.473Q354.47 150.717 354.132 151.954Q353.793 153.191 353.424 154.419Q353.055 155.647 352.655 156.866Q352.256 158.084 351.827 159.293Q351.398 160.501 350.939 161.699Q350.481 162.896 349.993 164.082Q349.505 165.268 348.988 166.441Q348.471 167.615 347.925 168.775Q347.379 169.936 346.805 171.082Q346.231 172.229 345.628 173.361Q345.026 174.493 344.396 175.61Q343.766 176.727 343.109 177.828Q342.452 178.929 341.768 180.014Q341.083 181.098 340.373 182.166Q339.662 183.233 338.926 184.283Q338.189 185.332 337.427 186.364Q336.664 187.395 335.877 188.407Q335.09 189.419 334.277 190.411Q333.465 191.404 332.629 192.376Q331.793 193.37 330.933 194.342Q330.072 195.314 329.187 196.264Q328.303 197.215 327.395 198.143Q326.486 199.07 325.555 199.975Q324.624 200.88 323.671 201.761Q322.717 202.642 321.742 203.499Q320.766 204.356 319.77 205.189Q318.773 206.021 317.756 206.828Q316.739 207.635 315.702 208.416Q314.665 209.197 313.609 209.952Q312.552 210.707 311.477 211.436Q310.403 212.164 309.31 212.865Q308.217 213.566 307.107 214.239Q305.997 214.913 304.87 215.558Q303.744 216.204 302.601 216.821Q301.459 217.438 300.301 218.026Q299.144 218.614 297.972 219.173Q296.8 219.732 295.614 220.261Q294.429 220.79 293.23 221.29Q292.032 221.789 290.821 222.258Q289.611 222.728 288.389 223.166Q287.167 223.605 285.934 224.013Q284.701 224.421 283.459 224.798Q282.217 225.175 280.965 225.52Q279.714 225.866 278.454 226.18Q277.194 226.494 275.927 226.777Q274.659 227.059 273.385 227.31Q272.111 227.56 270.832 227.779Q269.552 227.997 268.267 228.184Q266.982 228.37 265.693 228.524Q264.404 228.678 263.111 228.8Q261.818 228.922 260.523 229.011C232.832 231.103 204.84 220.473 183.972 202.539C163.139 184.636 151.016 158.657 149.014 131.44C147.103 105.451 156.583 78.326 173.615 58.6993C192.443 37.0026 217.399 23.9274 246.142 21.8545Z"/>
	<path fill="#2B2C2C" d="M401.507 236.356C407.569 235.977 414.152 236.965 419.874 238.982Q421.054 239.41 422.212 239.894Q423.369 240.379 424.502 240.92Q425.634 241.461 426.739 242.057Q427.844 242.652 428.918 243.302Q429.992 243.951 431.033 244.652Q432.075 245.353 433.08 246.104Q434.086 246.855 435.053 247.654Q436.021 248.454 436.948 249.299Q437.875 250.145 438.76 251.035Q439.645 251.926 440.485 252.858Q441.325 253.791 442.118 254.763Q442.912 255.736 443.657 256.746Q444.401 257.756 445.096 258.802Q445.79 259.847 446.433 260.925Q447.075 262.003 447.664 263.112Q448.253 264.22 448.787 265.356Q449.334 266.495 449.823 267.66Q450.313 268.824 450.745 270.012Q451.177 271.199 451.551 272.406Q451.924 273.613 452.237 274.837Q452.55 276.061 452.803 277.299Q453.055 278.537 453.247 279.786Q453.438 281.035 453.568 282.292Q453.698 283.549 453.766 284.81Q453.834 286.072 453.839 287.335Q453.845 288.599 453.788 289.861Q453.732 291.123 453.613 292.381Q453.495 293.639 453.315 294.89Q453.134 296.14 452.893 297.38Q452.651 298.62 452.349 299.847Q452.047 301.074 451.685 302.284Q451.322 303.495 450.901 304.686C447.335 314.713 439.022 326.055 429.238 330.733Q431.416 331.464 433.552 332.312Q435.688 333.159 437.774 334.121Q439.861 335.082 441.893 336.155Q443.925 337.228 445.896 338.409Q447.867 339.59 449.771 340.875Q451.676 342.161 453.508 343.547Q455.34 344.934 457.095 346.417Q458.85 347.9 460.522 349.476C476.817 364.972 487.998 386.771 488.4 409.546C488.533 417.126 485.921 424.366 480.588 429.81C476.819 433.658 472.418 436.239 467.117 437.273C462.658 438.143 457.816 437.839 453.28 437.835L433.455 437.777L356.161 437.787C359.014 449.469 362.291 465.248 359.079 477.075C356.913 485.052 351.074 492.297 343.882 496.32C340.376 498.282 336.585 499.294 332.592 499.618C326.79 500.089 320.795 499.808 314.969 499.81L283.422 499.824L211.384 499.835Q202.847 499.813 194.311 499.902C187.816 499.962 180.471 500.662 174.183 498.882C165.992 496.563 159.5 491.295 155.426 483.848Q154.162 481.524 153.305 479.021Q152.448 476.517 152.023 473.906C150.373 463.726 152.72 447.814 155.592 437.83C150.642 438.12 145.533 437.89 140.57 437.873L111.552 437.818L74.1651 437.877C66.4343 437.911 58.5789 438.236 50.8636 437.854C48.1108 437.718 44.7766 437.441 42.2084 436.395C35.0106 433.464 29.7322 428.582 26.6042 421.397C21.2542 409.108 25.5257 392.29 30.2335 380.191Q30.9005 378.478 31.6406 376.795Q32.3808 375.112 33.1927 373.462Q34.0047 371.812 34.8869 370.199Q35.7692 368.586 36.7201 367.012Q37.671 365.439 38.6889 363.908Q39.7067 362.376 40.7895 360.891Q41.8724 359.405 43.0182 357.967Q44.164 356.529 45.3708 355.142Q46.5775 353.754 47.8428 352.42Q49.1082 351.087 50.4298 349.808Q51.7514 348.53 53.1269 347.31Q54.5024 346.09 55.9291 344.93Q57.3559 343.771 58.8312 342.673Q60.3066 341.576 61.8279 340.544Q63.3491 339.511 64.9135 338.545Q66.4778 337.579 68.0823 336.681C72.2332 334.347 76.5667 332.625 80.9093 330.711C76.103 327.59 71.6498 323.654 68.1328 319.117C59.4756 307.949 56.2995 294.612 58.0675 280.691C58.0979 279.194 58.4678 277.492 58.7764 276.022C61.4253 263.411 69.7603 252.083 80.4715 245.079Q81.5391 244.378 82.6402 243.731Q83.7412 243.084 84.8729 242.493Q86.0046 241.901 87.1643 241.366Q88.3239 240.832 89.5087 240.355Q90.6934 239.878 91.9003 239.461Q93.1071 239.043 94.3332 238.686Q95.5593 238.329 96.8016 238.033Q98.0439 237.737 99.2993 237.503Q100.555 237.269 101.82 237.098Q103.086 236.926 104.358 236.818Q105.63 236.709 106.907 236.664Q108.183 236.618 109.46 236.636Q110.737 236.654 112.011 236.735Q113.286 236.816 114.554 236.96Q115.823 237.104 117.083 237.311Q118.344 237.518 119.592 237.787Q120.821 238.057 122.035 238.387Q123.249 238.718 124.445 239.109Q125.641 239.499 126.816 239.949Q127.992 240.398 129.143 240.905Q130.294 241.413 131.419 241.977Q132.544 242.541 133.639 243.16Q134.735 243.779 135.798 244.452Q136.861 245.125 137.889 245.85Q138.918 246.575 139.909 247.35Q140.9 248.125 141.851 248.949Q142.803 249.772 143.712 250.642Q144.621 251.512 145.486 252.426Q146.351 253.34 147.169 254.295Q147.987 255.251 148.757 256.246Q149.527 257.242 150.246 258.274Q150.966 259.306 151.633 260.373C159.025 271.956 161.196 285.348 158.234 298.747C155.197 312.478 147.112 323.437 135.325 330.922C137.161 331.387 138.968 332.083 140.721 332.794C164.812 342.569 181.392 362.278 191.225 385.84C201.539 377.807 212.968 371.136 225.604 367.483C215.276 361.095 207.508 353.868 201.56 343.181Q200.799 341.828 200.106 340.439Q199.413 339.049 198.791 337.628Q198.168 336.206 197.617 334.754Q197.066 333.303 196.587 331.826Q196.109 330.349 195.705 328.85Q195.301 327.352 194.971 325.835Q194.642 324.317 194.389 322.786Q194.136 321.254 193.959 319.712Q193.782 318.17 193.683 316.621Q193.583 315.071 193.56 313.519Q193.538 311.967 193.593 310.415Q193.647 308.864 193.779 307.317Q193.911 305.771 194.12 304.232Q194.329 302.694 194.614 301.168Q194.899 299.642 195.259 298.132Q195.62 296.622 196.055 295.132C200.601 279.393 211.964 265.137 226.338 257.26Q227.683 256.54 229.061 255.887Q230.438 255.234 231.847 254.648Q233.255 254.063 234.69 253.546Q236.124 253.03 237.583 252.584Q239.041 252.138 240.519 251.764Q241.998 251.389 243.492 251.087Q244.987 250.785 246.495 250.556Q248.002 250.327 249.519 250.171Q251.037 250.016 252.559 249.934Q254.082 249.853 255.607 249.845Q257.132 249.838 258.656 249.905Q260.179 249.972 261.698 250.112Q263.216 250.253 264.726 250.468Q266.236 250.682 267.733 250.97Q269.231 251.258 270.713 251.618Q272.194 251.978 273.657 252.41C289.752 257.213 302.654 267.765 310.611 282.602C318.571 297.444 320.717 314.799 315.743 330.994Q315.291 332.453 314.768 333.888Q314.245 335.323 313.652 336.731Q313.059 338.139 312.399 339.516Q311.738 340.893 311.01 342.236Q310.283 343.579 309.49 344.885Q308.698 346.19 307.843 347.456Q306.987 348.721 306.071 349.943Q305.155 351.165 304.18 352.341Q303.205 353.517 302.173 354.643Q301.142 355.77 300.057 356.845Q298.971 357.92 297.835 358.94Q296.698 359.96 295.513 360.924Q294.328 361.887 293.097 362.791Q291.866 363.696 290.592 364.539Q289.318 365.382 288.005 366.161Q286.691 366.941 285.341 367.655C298.705 370.958 310.235 379.502 321.523 386.911Q322.183 384.587 323.065 382.339C330.144 364.078 343.228 348.07 360.177 338.156C365.153 335.245 370.526 333.041 375.796 330.724C374.005 329.551 372.3 328.155 370.677 326.763C360.199 317.779 353.969 305.868 352.922 292.088C351.816 277.552 356.421 263.918 365.944 252.921C374.708 242.801 388.368 237.286 401.507 236.356Z"/>
	<path fill="#DDD" d="M401.442 247.856C411.499 247.288 421.225 250.889 428.906 257.347C436.867 264.041 441.449 273.537 442.346 283.841C443.303 294.826 439.958 304.959 432.803 313.352C425.651 321.74 415.713 326.297 404.798 327.145Q403.861 327.176 402.923 327.164Q401.985 327.152 401.049 327.097Q400.113 327.041 399.18 326.942Q398.248 326.843 397.321 326.701Q396.394 326.559 395.474 326.374Q394.555 326.189 393.645 325.962Q392.735 325.734 391.837 325.465Q390.938 325.196 390.054 324.885Q389.169 324.575 388.299 324.223Q387.43 323.872 386.577 323.481Q385.725 323.089 384.892 322.659Q384.058 322.229 383.246 321.76Q382.434 321.292 381.644 320.786Q380.854 320.28 380.089 319.739Q379.323 319.197 378.584 318.62Q377.844 318.043 377.132 317.433C369.423 310.802 364.625 300.593 363.946 290.492C363.264 280.355 366.7 269.464 373.426 261.816C380.829 253.398 390.272 248.61 401.442 247.856Z"/>
	<path fill="#DDD" d="M105.367 248.098C115.219 247.272 124.791 249.92 132.662 255.965C141.134 262.471 146.867 271.964 148.161 282.605Q148.283 283.575 148.356 284.549Q148.43 285.523 148.455 286.5Q148.48 287.477 148.457 288.454Q148.434 289.431 148.362 290.406Q148.291 291.38 148.171 292.35Q148.051 293.32 147.884 294.283Q147.716 295.245 147.501 296.199Q147.286 297.152 147.024 298.093Q146.762 299.035 146.453 299.962Q146.145 300.889 145.791 301.8Q145.437 302.711 145.039 303.603Q144.64 304.496 144.198 305.367Q143.755 306.238 143.271 307.087Q142.786 307.935 142.259 308.759Q141.733 309.582 141.167 310.378Q140.6 311.175 139.995 311.942C132.987 320.807 123.916 325.375 112.813 326.722C101.517 327.13 91.7262 325.057 82.7217 317.885C74.7455 311.532 70.0017 302.712 68.9268 292.598C67.7882 281.884 70.677 271.283 77.512 262.887C84.545 254.248 94.3572 249.276 105.367 248.098Z"/>
	<path fill="#DDD" d="M250.524 261.355C250.569 261.348 250.614 261.339 250.66 261.335C264.228 260.188 277.423 264.052 288.028 272.592C298.869 281.321 305.443 293.76 306.877 307.572C308.237 320.658 304.191 334.704 295.836 344.906C287.247 355.394 275.381 362.388 261.81 363.705Q261.252 363.783 260.69 363.835Q259.438 363.953 258.181 364.01Q256.924 364.067 255.666 364.062Q254.408 364.056 253.152 363.989Q251.896 363.922 250.644 363.793Q249.393 363.664 248.15 363.473Q246.906 363.283 245.674 363.031Q244.441 362.78 243.222 362.468Q242.004 362.156 240.802 361.784Q239.6 361.413 238.418 360.982Q237.236 360.552 236.076 360.064Q234.917 359.576 233.783 359.032Q232.649 358.487 231.543 357.887Q230.437 357.288 229.362 356.634Q228.287 355.981 227.245 355.275Q226.204 354.57 225.198 353.814Q224.193 353.058 223.226 352.253Q222.25 351.443 221.314 350.587Q220.379 349.73 219.486 348.829Q218.594 347.927 217.747 346.983Q216.901 346.038 216.101 345.053Q215.302 344.068 214.552 343.045Q213.803 342.022 213.104 340.963Q212.405 339.905 211.76 338.813Q211.114 337.721 210.523 336.599Q209.932 335.476 209.397 334.326Q208.862 333.176 208.384 332.001Q207.906 330.826 207.486 329.629Q207.067 328.432 206.707 327.216Q206.347 326 206.047 324.767Q205.747 323.535 205.508 322.289Q205.27 321.043 205.092 319.787Q204.915 318.531 204.8 317.268Q204.692 316.003 204.647 314.733Q204.602 313.464 204.619 312.194Q204.636 310.924 204.716 309.657Q204.796 308.389 204.938 307.127Q205.08 305.865 205.284 304.611Q205.488 303.358 205.754 302.116Q206.019 300.874 206.346 299.646Q206.672 298.419 207.059 297.209Q207.445 295.999 207.891 294.81Q208.337 293.621 208.84 292.455Q209.344 291.289 209.904 290.149Q210.465 289.009 211.081 287.899Q211.697 286.788 212.367 285.709Q213.036 284.63 213.759 283.585Q214.481 282.54 215.254 281.533Q216.026 280.525 216.848 279.556C225.393 269.289 237.18 262.626 250.524 261.355Z"/>
	<path fill="#F4A31C" d="M62.0235 426.737C54.2646 426.867 46.3683 428.112 40.2645 422.238C36.9891 419.086 35.389 414.705 35.3632 410.206C35.2553 391.452 44.3678 371.868 57.4739 358.755Q58.7008 357.507 59.9885 356.321Q61.2762 355.135 62.6214 354.016Q63.9667 352.896 65.3661 351.844Q66.7655 350.793 68.2156 349.813Q69.6658 348.832 71.163 347.926Q72.6602 347.019 74.2008 346.188Q75.7414 345.357 77.3215 344.604Q78.9017 343.851 80.5174 343.178Q82.1331 342.505 83.7804 341.913Q85.4277 341.321 87.1025 340.812Q88.7773 340.303 90.4754 339.879Q92.1735 339.454 93.8906 339.115Q95.6078 338.775 97.3397 338.522Q99.0717 338.268 100.814 338.102Q102.557 337.935 104.305 337.856Q106.054 337.776 107.804 337.784C127.424 337.84 147.111 345.627 160.919 359.615C170.017 368.831 178.908 381.468 181.584 394.343C172.454 403.709 164.296 414.374 159.705 426.748L99.8632 426.74C90.4158 426.759 80.9461 426.953 71.5021 426.744L62.0235 426.737Z"/>
	<path fill="white" d="M62.0235 426.737L62.0398 407.822C62.0426 404.648 61.7881 401.168 62.19 398.029C62.343 396.834 62.6049 395.342 63.5352 394.485C64.4624 393.632 65.9092 393.406 67.1209 393.539C68.3951 393.678 69.6993 394.215 70.5301 395.223C72.3097 397.383 71.3548 422.057 71.5021 426.744L62.0235 426.737Z"/>
	<path fill="#028F69" d="M330.775 395.491Q331.208 393.688 331.729 391.908Q332.249 390.128 332.856 388.375Q333.462 386.622 334.153 384.901Q334.844 383.18 335.618 381.495Q336.391 379.809 337.246 378.164Q338.101 376.518 339.034 374.915Q339.968 373.313 340.979 371.758Q341.989 370.203 343.074 368.699Q344.159 367.194 345.315 365.745Q346.472 364.295 347.698 362.903Q348.923 361.512 350.215 360.181Q351.507 358.85 352.862 357.584Q354.217 356.318 355.632 355.119Q357.047 353.92 358.519 352.792Q359.99 351.663 361.515 350.607Q363.04 349.551 364.614 348.571Q366.149 347.631 367.729 346.769Q369.308 345.906 370.928 345.122Q372.548 344.338 374.205 343.635Q375.862 342.932 377.551 342.312Q379.241 341.691 380.959 341.155Q382.677 340.619 384.419 340.168Q386.162 339.717 387.924 339.353Q389.687 338.988 391.465 338.711Q393.243 338.434 395.033 338.245Q396.823 338.056 398.62 337.956Q400.417 337.855 402.217 337.844Q404.017 337.832 405.815 337.909Q407.613 337.986 409.405 338.152Q411.197 338.318 412.979 338.572Q414.761 338.826 416.528 339.167Q418.295 339.509 420.043 339.937Q421.809 340.362 423.553 340.874Q425.296 341.386 427.012 341.983Q428.727 342.58 430.412 343.261Q432.096 343.942 433.745 344.705Q435.393 345.469 437.002 346.312Q438.611 347.156 440.177 348.078Q441.742 349 443.26 349.998Q444.778 350.996 446.245 352.068Q447.712 353.14 449.124 354.283Q450.536 355.425 451.891 356.636Q453.245 357.848 454.538 359.124Q455.83 360.4 457.059 361.739Q458.287 363.078 459.448 364.475Q460.609 365.873 461.699 367.326Q462.789 368.779 463.807 370.284Q464.824 371.789 465.766 373.343C471.787 383.141 479.628 403.961 476.778 415.184C475.767 419.164 472.846 422.717 469.285 424.723C464.295 427.535 455.483 426.497 449.908 426.439C446.636 426.56 443.362 426.514 440.089 426.497C434.876 426.914 429.47 426.624 424.233 426.643L394.188 426.732L365.955 426.76C361.27 426.785 356.449 427.16 351.781 426.885C345.268 413.468 341.123 406.368 330.775 395.491Z"/>
	<path fill="white" d="M440.089 426.497C440.307 420.03 440.072 413.484 440.03 407.01C440.009 403.806 439.732 400.314 440.321 397.158C440.485 396.275 440.777 395.583 441.434 394.959C442.507 393.939 444.253 393.526 445.699 393.595C446.817 393.648 447.833 394.066 448.589 394.906C449.413 395.82 449.787 397.038 449.952 398.235C450.487 402.13 450.004 406.56 449.988 410.511C449.966 415.784 450.271 421.185 449.908 426.439C446.636 426.56 443.362 426.514 440.089 426.497Z"/>
	<path fill="#82CED7" d="M199.9 488.563L188.173 488.667C180.564 488.723 174.101 488.73 168.351 483.033C164.207 478.927 162.722 473.811 162.757 468.09C162.915 442.369 172.35 418.922 190.763 400.88C208.197 383.797 231.647 375.021 255.982 375.338C280.798 375.662 305.126 385.028 322.494 402.998C339.103 420.184 349.326 443.329 348.977 467.407C348.887 473.632 347.201 478.907 342.606 483.301C336.959 488.699 330.476 488.761 323.126 488.678C319.167 488.633 315.209 488.541 311.251 488.652Q306.903 488.744 302.554 488.699C294.387 488.463 286.157 488.692 277.984 488.696L227.104 488.698L211.072 488.688C207.391 488.713 203.565 488.925 199.9 488.563Z"/>
	<path fill="white" d="M302.793 449.275C303.209 448.541 303.664 447.851 304.284 447.269C305.043 446.556 306.141 446.086 307.192 446.17C308.878 446.305 309.904 447.422 310.9 448.661C311.703 452.9 311.231 457.917 311.221 462.246Q311.106 475.449 311.251 488.652Q306.903 488.744 302.554 488.699C302.351 482.13 302.527 475.499 302.556 468.924C302.586 462.389 302.466 455.799 302.793 449.275Z"/>
	<path fill="white" d="M199.9 488.563L199.922 462.732C199.921 458.594 199.566 454.091 200.069 449.991C200.184 449.052 200.417 448.195 201.096 447.503C201.945 446.636 203.081 446.388 204.263 446.413C205.492 446.44 206.509 446.933 207.456 447.69C207.992 448.587 208.257 449.329 208.391 450.368C208.957 454.751 208.63 459.537 208.65 463.962L208.77 488.484C205.893 488.487 202.744 488.244 199.9 488.563Z"/>
</svg>
